<svg width="21" height="18" viewBox="0 0 21 18" fill="none" xmlns="http://www.w3.org/2000/svg">
<path d="M21 4.5V16.0714C21 17.1362 20.1182 18 19.0312 18H1.96875C0.881836 18 0 17.1362 0 16.0714V4.5C0 3.43527 0.881836 2.57143 1.96875 2.57143H5.57812L6.08262 1.24955C6.36973 0.498214 7.10391 0 7.92422 0H13.0717C13.892 0 14.6262 0.498214 14.9133 1.24955L15.4219 2.57143H19.0312C20.1182 2.57143 21 3.43527 21 4.5ZM15.4219 10.2857C15.4219 7.62589 13.2152 5.46429 10.5 5.46429C7.78477 5.46429 5.57812 7.62589 5.57812 10.2857C5.57812 12.9455 7.78477 15.1071 10.5 15.1071C13.2152 15.1071 15.4219 12.9455 15.4219 10.2857ZM14.1094 10.2857C14.1094 12.2344 12.4893 13.8214 10.5 13.8214C8.51074 13.8214 6.89062 12.2344 6.89062 10.2857C6.89062 8.33705 8.51074 6.75 10.5 6.75C12.4893 6.75 14.1094 8.33705 14.1094 10.2857Z" fill="white"/>
</svg>
