<svg width="22" height="23" viewBox="0 0 22 23" fill="none" xmlns="http://www.w3.org/2000/svg">
<path d="M0.78125 4.07555H21.0938C21.5252 4.07555 21.875 3.67158 21.875 3.1732V0.917343C21.875 0.418967 21.5252 0.0149994 21.0938 0.0149994H0.78125C0.349756 0.0149994 0 0.418967 0 0.917343V3.1732C0 3.67158 0.349756 4.07555 0.78125 4.07555ZM0.78125 13.099H21.0938C21.5252 13.099 21.875 12.695 21.875 12.1966V9.94078C21.875 9.4424 21.5252 9.03844 21.0938 9.03844H0.78125C0.349756 9.03844 0 9.4424 0 9.94078V12.1966C0 12.695 0.349756 13.099 0.78125 13.099ZM0.78125 22.1224H21.0938C21.5252 22.1224 21.875 21.7185 21.875 21.2201V18.9642C21.875 18.4658 21.5252 18.0619 21.0938 18.0619H0.78125C0.349756 18.0619 0 18.4658 0 18.9642V21.2201C0 21.7185 0.349756 22.1224 0.78125 22.1224Z" fill="black"/>
</svg>
