<svg width="12" height="20" viewBox="0 0 12 20" fill="none" xmlns="http://www.w3.org/2000/svg">
<path d="M10.2 0H1.8C0.80625 0 0 0.839844 0 1.875V18.125C0 19.1602 0.80625 20 1.8 20H10.2C11.1938 20 12 19.1602 12 18.125V1.875C12 0.839844 11.1938 0 10.2 0ZM6 18.75C5.33625 18.75 4.8 18.1914 4.8 17.5C4.8 16.8086 5.33625 16.25 6 16.25C6.66375 16.25 7.2 16.8086 7.2 17.5C7.2 18.1914 6.66375 18.75 6 18.75ZM10.2 14.5312C10.2 14.7891 9.9975 15 9.75 15H2.25C2.0025 15 1.8 14.7891 1.8 14.5312V2.34375C1.8 2.08594 2.0025 1.875 2.25 1.875H9.75C9.9975 1.875 10.2 2.08594 10.2 2.34375V14.5312Z" fill="black"/>
</svg>
