<svg width="20" height="28" viewBox="0 0 20 28" fill="none" xmlns="http://www.w3.org/2000/svg">
<path d="M10 27.425C11.5768 27.425 12.8558 25.9385 12.8558 24.1044H7.14421C7.14421 25.9385 8.42322 27.425 10 27.425ZM19.6156 19.6573C18.7531 18.5802 17.1393 16.9598 17.1393 11.652C17.1393 7.62059 14.7071 4.39335 11.4277 3.60159V2.52031C11.4277 1.60351 10.7884 0.860001 10 0.860001C9.21161 0.860001 8.57233 1.60351 8.57233 2.52031V3.60159C5.29287 4.39335 2.86074 7.62059 2.86074 11.652C2.86074 16.9598 1.2469 18.5802 0.384405 19.6573C0.116548 19.992 -0.00220127 20.392 3.08654e-05 20.7837C0.00494156 21.6347 0.579493 22.4441 1.43306 22.4441H18.5669C19.4205 22.4441 19.9955 21.6347 20 20.7837C20.0022 20.392 19.8835 19.9915 19.6156 19.6573Z" fill="black"/>
</svg>
